<?xml version="1.0" encoding="UTF-8"?><svg id="a" xmlns="http://www.w3.org/2000/svg"  viewBox="0 0 61 358"><rect x="1" y="6" width="12" height="2"/><rect x="3" y="355" width="12" height="2"/><rect x="1" y="6" width="12" height="2" transform="translate(14) rotate(90)"/><rect x="1" y="27" width="16" height="3"/><rect x="1" y="44" width="16" height="3"/><rect x="1" y="61" width="16" height="3"/><rect x="1" y="78" width="16" height="3"/><rect x="1" y="95" width="26" height="3"/><rect x="1" y="112" width="16" height="3"/><rect x="1" y="129" width="16" height="3"/><rect x="1" y="146" width="16" height="3"/><rect x="1" y="163" width="16" height="3"/><rect x="1" y="197" width="16" height="3"/><rect x="1" y="214" width="16" height="3"/><rect x="1" y="231" width="16" height="3"/><rect x="1" y="248" width="16" height="3"/><rect x="1" y="265" width="26" height="3"/><rect x="1" y="282" width="16" height="3"/><rect x="1" y="299" width="16" height="3"/><rect x="1" y="316" width="16" height="3"/><rect x="1" y="333" width="16" height="3"/><rect x="1" y="180" width="26" height="3"/><path d="M49,177h11v10h-11c-1.67-1.67-3.33-3.33-5-5,1.67-1.67,3.33-3.33,5-5Z"/></svg>